<svg width="135" height="34" viewBox="0 0 135 34" fill="none" xmlns="http://www.w3.org/2000/svg">
<path d="M46.1601 23.7345C44.7051 23.7345 43.523 22.5741 43.523 21.146C43.523 19.7199 44.7051 18.5574 46.1601 18.5574C46.7227 18.5574 47.2581 18.7285 47.7053 19.0521L48.0056 18.6502C47.4681 18.2647 46.8319 18.0607 46.1601 18.0607C44.428 18.0607 43.0169 19.4437 43.0169 21.146C43.0169 22.8461 44.428 24.2312 46.1601 24.2312C46.8319 24.2312 47.4701 24.0271 48.0056 23.6417L47.7053 23.2398C47.2581 23.5634 46.7227 23.7324 46.1601 23.7324V23.7345ZM59.316 23.7345C57.861 23.7345 56.679 22.5741 56.679 21.146C56.679 19.7199 57.861 18.5574 59.316 18.5574C59.8787 18.5574 60.4141 18.7285 60.8612 19.0521L61.1615 18.6502C60.6241 18.2647 59.9878 18.0607 59.316 18.0607C57.584 18.0607 56.1729 19.4437 56.1729 21.146C56.1729 22.8461 57.584 24.2312 59.316 24.2312C59.9878 24.2312 60.6261 24.0271 61.1615 23.6417L60.8612 23.2398C60.4141 23.5634 59.8787 23.7324 59.316 23.7324V23.7345ZM69.4505 18.0341C68.4888 18.0341 67.6637 18.5286 67.2461 19.2417C66.8934 18.4668 66.106 18.0341 64.9575 18.0341C64.1408 18.0341 63.4207 18.3925 62.9652 18.9387V18.2028H62.4592V23.9651H62.9652V20.2761C62.9652 19.3137 63.8596 18.5306 64.9575 18.5306C66.2803 18.5306 66.9527 19.1179 66.9521 20.2761L66.9499 23.9651H67.4559L67.4581 20.2761C67.4585 19.3137 68.3503 18.5306 69.4505 18.5306C70.7732 18.5306 71.4434 19.1179 71.443 20.2761L71.4409 23.9651H71.9469L71.949 20.2761C71.9498 18.8314 71.0608 18.0339 69.4505 18.0339V18.0341ZM79.207 20.4803L79.4465 20.1526C79.0162 18.9016 77.8215 18.0607 76.4735 18.0607C74.7414 18.0607 73.3304 19.4457 73.3304 21.146C73.3304 22.8483 74.7414 24.2312 76.4735 24.2312C77.4959 24.2312 78.4492 23.7347 79.0433 22.9184L79.1902 22.7165L78.7745 22.4299L78.6296 22.6339C78.1393 23.3242 77.332 23.7345 76.4735 23.7345C75.0185 23.7345 73.8364 22.5741 73.8364 21.146C73.8364 20.9173 73.8678 20.6925 73.9245 20.4803H79.2069H79.207ZM76.4735 18.5574C77.4813 18.5574 78.3883 19.1179 78.8271 19.9836H74.1178C74.5525 19.1386 75.4448 18.5574 76.4737 18.5574H76.4735ZM96.2422 18.3082V19.4232C95.709 18.6007 94.8061 18.0609 93.7857 18.0609C92.1523 18.0609 90.8232 19.4438 90.8232 21.1461C90.8232 22.8485 92.1523 24.2313 93.7857 24.2313C94.8061 24.2313 95.7089 23.6914 96.2422 22.869V23.9654H96.7482V18.3083H96.2422V18.3082ZM93.7857 23.7345C92.4314 23.7345 91.3291 22.5741 91.3291 21.146C91.3291 19.7199 92.4314 18.5574 93.7857 18.5574C95.14 18.5574 96.2422 19.7199 96.2422 21.146C96.2422 22.5741 95.14 23.7345 93.7857 23.7345ZM111.193 18.0341C110.232 18.0341 109.407 18.5286 108.989 19.2417C108.636 18.4668 107.849 18.0341 106.701 18.0341C105.884 18.0341 105.164 18.3925 104.708 18.9387V18.2028H104.202V23.9651H104.708V20.2761C104.708 19.3137 105.602 18.5306 106.701 18.5306C108.023 18.5306 108.693 19.1178 108.695 20.2761L108.693 23.9651H109.199L109.201 20.2761C109.201 19.3137 110.093 18.5306 111.193 18.5306C112.516 18.5306 113.186 19.1178 113.186 20.2761L113.184 23.9651H113.69L113.692 20.2761C113.692 18.8314 112.804 18.0339 111.193 18.0339V18.0341ZM120.95 20.4803L121.189 20.1526C120.759 18.9016 119.564 18.0607 118.216 18.0607C116.484 18.0607 115.073 19.4457 115.073 21.146C115.073 22.8483 116.484 24.2312 118.216 24.2312C119.239 24.2312 120.2 23.7406 120.786 22.9184L120.933 22.7165L120.517 22.4299L120.373 22.6339C119.879 23.3222 119.075 23.7345 118.216 23.7345C116.761 23.7345 115.579 22.5741 115.579 21.146C115.579 20.9173 115.611 20.6925 115.667 20.4803H120.95H120.95ZM118.216 18.5574C119.224 18.5574 120.131 19.1179 120.57 19.9836H115.861C116.295 19.1386 117.188 18.5574 118.216 18.5574H118.216ZM134.494 18.3082V19.4232C133.961 18.6007 133.058 18.0609 132.037 18.0609C130.404 18.0609 129.075 19.4438 129.075 21.1461C129.075 22.8485 130.404 24.2313 132.037 24.2313C133.058 24.2313 133.961 23.6914 134.494 22.869V23.9654H135V18.3083H134.494V18.3082ZM132.037 23.7345C130.683 23.7345 129.581 22.5741 129.581 21.146C129.581 19.7199 130.683 18.5574 132.037 18.5574C133.392 18.5574 134.494 19.7199 134.494 21.146C134.494 22.5741 133.392 23.7345 132.037 23.7345Z" fill="#2B2A29"/>
<path d="M52.0511 24.2039C52.9727 24.2039 53.7875 23.7918 54.285 23.1631V24.0245H54.791V18.2727H54.285V21.7514H54.2808C54.2808 22.8291 53.2815 23.707 52.0511 23.707C51.0328 23.707 49.8215 23.3669 49.8215 21.7514L49.8256 18.2727H49.3175L49.3154 21.7514C49.3154 23.3094 50.3127 24.2037 52.0511 24.2037V24.2039Z" fill="#2B2A29"/>
<path d="M122.472 24.1941L125.146 18.8592L127.822 24.1941H128.385L125.375 18.1875H124.92L121.907 24.1941H122.472Z" fill="#2B2A29"/>
<path d="M80.4588 24.1942L83.1172 18.8905L84.7711 22.1875L84.9121 22.4685L85.0533 22.7498L85.1784 22.4997L85.3353 22.1867V22.1865L86.9876 18.8905L89.6478 24.1942H90.208L87.2164 18.2185H86.7608L85.0534 21.6242L83.3461 18.2185H82.8905L79.8903 24.1942H80.4588Z" fill="#2B2A29"/>
<path d="M44.3812 4.38027C42.7507 4.09313 41.17 4.27919 39.5739 4.66327C37.9013 5.06593 36.1323 5.73537 34.3859 5.54126C33.557 5.44882 32.7722 5.09114 31.9837 4.8401C31.3114 4.62622 30.6272 4.46312 29.9215 4.40927C28.0855 4.26925 26.2604 4.76802 24.4394 4.9091C23.5763 4.97586 22.7069 5.02154 21.8424 5.06131C20.9646 5.10179 20.072 5.1109 19.2047 4.95076C18.4127 4.80471 17.7567 4.45768 17.0853 4.03194C16.4914 3.65544 15.8897 3.24793 15.1989 3.06672C13.7186 2.67815 12.1159 3.03843 10.6447 3.28853C8.97418 3.57294 7.33639 3.73888 5.73763 3.06187C5.17034 2.82136 4.24638 2.45918 3.79715 3.11821C3.58654 3.42677 3.74914 3.8744 3.40827 4.10769C3.1075 4.31328 2.71335 4.32476 2.41055 4.53461C1.88948 4.89608 1.53221 5.49711 1.29598 6.06819C1.05747 6.6446 0.895598 7.32328 1.07927 7.93685C1.09711 7.99698 1.16044 8.03331 1.22234 8.01722C2.12008 7.7844 2.58763 6.95837 3.31595 6.46553C4.15646 5.89622 5.18878 5.78768 6.17692 5.73963C6.64937 5.71655 7.12279 5.66956 7.5895 5.5918C7.99 5.52493 8.5513 5.45154 8.85266 5.14842C9.24765 4.75168 8.65019 4.35554 8.3353 4.17729C8.29914 4.15669 8.25365 4.1561 8.21773 4.17729C7.53167 4.57983 7.92247 5.22844 8.39768 5.63713C9.01178 6.16513 9.83996 6.0921 10.5967 6.06263C12.5505 5.987 14.7386 6.14489 16.4509 7.15781C17.1523 7.57278 17.8031 8.07663 18.5609 8.39253C19.4765 8.77436 20.5441 8.85295 21.5193 8.99948C22.5627 9.15583 23.6098 9.28804 24.6601 9.39019C25.6809 9.48949 26.7108 9.52796 27.7224 9.7036C28.6694 9.86788 29.518 10.2107 30.4099 10.5487C31.3698 10.9125 32.3804 11.1084 33.3942 11.2572C34.3869 11.403 35.4059 11.4803 36.3821 11.7168C37.2882 11.936 38.1419 12.2913 39.0911 12.1091C39.5597 12.0192 40.0061 11.8503 40.489 11.8439C40.8316 11.8393 41.1748 11.8729 41.5167 11.8918C42.1329 11.9257 42.7898 11.9311 43.3439 11.6229C43.921 11.3012 44.3124 10.6515 44.462 10.0252C44.5399 9.69887 44.4731 9.36569 44.0799 9.34545C43.6611 9.3239 43.2298 9.53115 42.8335 9.63827C42.2666 9.79166 41.651 9.71212 41.1398 9.41634C40.1263 8.82987 39.9374 7.52768 39.3349 6.62022C39.1829 6.39143 39.0057 6.18241 38.7979 6.00097C38.7584 5.96652 38.7038 5.95658 38.6568 5.98298C37.0206 6.89695 38.7966 8.83259 38.79 10.1002C38.7858 10.9202 37.8942 11.0033 37.2446 10.9956C36.3823 10.9856 35.5166 10.8101 34.6883 10.5829C33.858 10.3548 32.9376 10.035 32.4458 9.28567C32.0948 8.75093 32.1807 8.2595 32.5008 7.74748C32.7218 7.39323 32.9258 7.03803 32.8432 6.60673C32.5756 5.20725 30.4572 5.59736 29.5037 5.84248C28.8054 6.02203 28.0967 6.27189 27.4764 6.64188C27.2498 6.77681 27.0339 6.93115 26.8789 7.14645C26.5807 7.56059 26.5583 8.08859 26.6048 8.57729C26.66 9.16104 26.7571 9.73023 26.7829 10.3174C26.815 11.0525 26.8381 11.7883 26.856 12.5237C26.8872 13.7959 26.9434 15.0468 27.2763 16.2831C27.6069 17.5099 28.2035 18.6021 28.6824 19.7704C29.1709 20.9623 29.29 22.2194 29.3037 23.4942C29.3163 24.675 29.3744 25.8069 29.8064 26.922C30.0172 27.4659 30.2958 27.9725 30.5706 28.4864C30.8026 28.9201 30.9012 29.402 30.9739 29.8833C31.0998 30.7207 31.1427 31.6784 31.7855 32.3157C32.2699 32.796 32.9666 32.9433 33.6161 33.0675C34.4488 33.2266 35.2986 33.3203 36.146 33.3506C36.8913 33.3775 37.7089 33.3891 38.4249 33.1493C38.6415 33.0772 38.8608 32.9758 39.0086 32.7975C39.0595 32.736 39.0498 32.6631 38.9851 32.6165C37.8837 31.8265 36.3405 32.0408 35.2947 31.1553C34.361 30.365 34.1035 28.8433 32.9142 28.3277C32.5694 28.1782 32.0679 28.1735 31.8375 28.5218C31.6482 28.808 31.83 29.0995 32.1203 29.2153C32.4285 29.3381 32.8803 29.3696 33.1104 29.0868C33.3037 28.8496 33.2814 28.5014 33.2392 28.2189C33.1814 27.8306 33.0529 27.4549 32.9168 27.0874C32.7261 26.5722 32.5531 26.0538 32.4162 25.5214C32.0174 23.9671 31.8579 22.3621 31.7897 20.7633C31.7216 19.1706 31.6976 17.5576 31.791 15.9656C31.84 15.1307 31.9116 14.2944 31.866 13.4574C31.8194 12.6029 31.6585 11.7535 31.5161 10.9107C31.388 10.1519 31.206 9.36687 31.2333 8.59351C31.2488 8.15854 31.3553 7.68865 31.7478 7.43643C32.0676 7.23096 32.4787 7.19782 32.8493 7.18006C33.3316 7.15722 33.8147 7.17545 34.2971 7.15414C35.663 7.09378 36.9301 6.5988 38.1985 6.13519C38.9328 5.86698 39.6755 5.61298 40.4456 5.46586C41.0359 5.35319 41.6731 5.23838 42.2768 5.28276C42.8984 5.32845 43.2568 5.66068 43.2758 6.28882C43.2893 6.7329 43.2198 7.17722 43.2474 7.62071C43.3096 8.627 44.2359 9.07168 45.15 9.23147C45.9419 9.37006 46.7129 9.17311 47.4978 9.08979C48.2692 9.00788 49.0501 9.06138 49.819 9.14435C51.4306 9.31846 53.0306 9.56784 54.6464 9.71047C55.4451 9.78089 56.2527 9.81403 57.0501 9.7062C57.8636 9.59613 58.6148 9.27561 59.3996 9.05345C60.5807 8.71932 61.8334 8.53741 62.9264 7.95993C63.3256 7.74902 63.7176 7.50792 64.0576 7.21072C64.2978 7.00039 64.5779 6.71266 64.5927 6.37463C64.6072 6.04713 64.3338 5.78709 64.0328 5.70104C63.5772 5.57097 63.0671 5.74614 62.6315 5.87302C62.145 6.0147 61.5795 6.23153 61.0763 6.05352C61.0994 6.10998 61.1226 6.16643 61.1457 6.22277C61.1979 6.11234 61.2651 6.01174 61.3256 5.90616C61.3586 5.8484 61.333 5.74768 61.2559 5.73691C60.4535 5.62364 59.948 6.35368 59.4446 6.84688C59.1073 7.17781 58.7481 7.43915 58.2517 7.4053C57.6986 7.36731 57.1811 7.12893 56.6329 7.05957C55.3153 6.89316 53.9698 7.20101 52.6497 7.21154C51.3883 7.22172 50.2143 6.96074 49.0988 6.37344C47.8556 5.71903 46.5624 5.19056 45.1533 5.02746C45.1908 5.07611 45.2283 5.12475 45.2657 5.17328C45.4525 4.29529 46.9766 5.03101 47.4566 5.22583C47.8435 5.38266 48.2293 5.57262 48.634 5.68069C48.995 5.77703 49.2026 5.64352 49.4578 5.38917C49.6534 5.19447 49.9561 4.92804 50.1836 5.26702C50.3375 5.49628 50.2989 5.82994 50.421 6.07802C50.5897 6.42138 51.0414 6.55004 51.3755 6.68224C51.7549 6.8328 52.1849 6.9476 52.5096 6.59584C52.7841 6.29793 52.51 5.89338 52.474 5.56091C52.4106 4.97893 52.4929 4.38631 52.287 3.82327C52.0802 3.25894 51.6098 2.90031 51.0908 2.62488C51.0517 2.69128 51.0125 2.75757 50.9732 2.82385C51.3926 3.00908 52.0242 3.09773 52.1632 2.52546C52.2952 1.98196 51.8475 1.43632 51.3903 1.20232C50.4303 0.711133 48.5019 1.10267 49.0696 2.50451C49.1071 2.45599 49.1445 2.40746 49.1818 2.35881C47.9482 2.28803 46.9305 3.1085 47.0512 4.37956C47.0649 4.52585 47.298 4.52716 47.284 4.37956C47.1747 3.22816 48.0674 2.52523 49.1817 2.58902C49.2517 2.59328 49.3216 2.51126 49.2942 2.44332C48.8488 1.344 50.2488 1.05153 51.055 1.31204C51.4775 1.44851 51.8915 1.80371 51.9454 2.26318C52.0103 2.81675 51.4647 2.79011 51.0905 2.62488C50.9567 2.56594 50.8384 2.75224 50.9729 2.82385C51.4788 3.09217 51.9316 3.43553 52.1002 4.00034C52.2524 4.51011 52.1925 5.03977 52.2408 5.56091C52.2596 5.76602 52.3439 5.95055 52.3813 6.15057C52.4332 6.42528 52.1953 6.62934 51.9077 6.61383C51.7304 6.60436 51.5357 6.50092 51.3739 6.43499C51.1785 6.35486 50.9327 6.27189 50.7632 6.14252C50.3828 5.85243 50.6354 5.18156 50.163 4.9407C49.7537 4.73204 49.4776 5.06179 49.2073 5.31354C48.8955 5.60363 48.5994 5.43971 48.2472 5.30146C47.8413 5.14239 47.4433 4.96485 47.0338 4.81536C46.4425 4.60018 45.236 4.19362 45.0408 5.11197C45.0238 5.19163 45.0755 5.24879 45.1531 5.25779C46.478 5.41095 47.7105 5.90592 48.8811 6.51962C49.909 7.05839 50.9691 7.38542 52.1367 7.43371C53.4627 7.48886 54.7754 7.22741 56.1001 7.25735C56.7028 7.27096 57.2374 7.45087 57.8207 7.57148C58.2161 7.65314 58.6095 7.68202 58.9789 7.49525C59.3713 7.29676 59.6684 6.95045 59.9674 6.64034C60.2888 6.30669 60.6801 5.88663 61.1937 5.95895C61.1703 5.90273 61.1472 5.84627 61.124 5.78993C61.0632 5.89586 60.9964 5.99635 60.9442 6.10654C60.9107 6.1772 60.9384 6.24905 61.0139 6.27568C61.4487 6.42931 61.9233 6.31166 62.3519 6.19354C62.8247 6.06299 63.3833 5.81171 63.8841 5.90273C64.3123 5.98025 64.4674 6.3345 64.2331 6.68224C63.9981 7.03081 63.6117 7.28599 63.2587 7.50401C62.3257 8.08042 61.3232 8.31181 60.265 8.58368C59.4869 8.78383 58.7327 9.03096 57.9676 9.27112C57.2266 9.50357 56.4458 9.56121 55.6723 9.54204C54.1077 9.50357 52.53 9.27265 50.9814 9.06079C50.2613 8.9622 49.5386 8.8668 48.8119 8.83236C48.0932 8.79851 47.4033 8.86869 46.6938 8.97072C45.8748 9.08872 45.0927 9.08127 44.3255 8.73471C43.9262 8.55445 43.5948 8.2898 43.5068 7.84702C43.3556 7.0881 43.8025 6.06737 43.2223 5.42953C42.9491 5.12901 42.524 5.05457 42.1338 5.04652C41.5882 5.03504 41.0281 5.12866 40.4926 5.22382C39.0558 5.47829 37.736 6.11554 36.3502 6.54116C35.7375 6.72923 35.1137 6.87387 34.4719 6.9147C34.0132 6.94358 33.5533 6.93245 33.094 6.94204C32.4579 6.95565 31.6839 6.99566 31.2844 7.56485C31.0525 7.89554 30.9991 8.31951 30.9979 8.7121C30.9959 9.42735 31.1526 10.1502 31.2709 10.8526C31.4094 11.6759 31.569 12.5032 31.6253 13.337C31.6786 14.1336 31.6215 14.9307 31.572 15.7258C31.4771 17.2526 31.4901 18.7921 31.5395 20.3204C31.5862 21.7644 31.7 23.2114 31.9772 24.6316C32.1144 25.3351 32.2933 26.0315 32.5293 26.7092C32.6415 27.0319 32.7724 27.3474 32.8713 27.6746C32.972 28.0065 33.0957 28.4086 33.0124 28.7561C32.919 29.1442 32.2766 29.1954 32.0398 28.8971C31.8812 28.6972 32.1384 28.5114 32.3197 28.4721C32.6538 28.3993 32.9815 28.5945 33.2234 28.8015C33.6999 29.2091 33.9936 29.7812 34.3202 30.3033C34.6208 30.7839 34.9598 31.2458 35.4489 31.5543C35.9562 31.8741 36.5482 32.0167 37.1266 32.1534C37.7374 32.298 38.3499 32.4448 38.8665 32.8155C38.8586 32.7551 38.8509 32.6949 38.843 32.6345C38.4649 33.0901 37.6017 33.099 37.0646 33.1209C36.2102 33.1558 35.3483 33.0931 34.5015 32.9787C33.8578 32.892 33.1636 32.8011 32.5596 32.5515C31.6257 32.1655 31.3997 31.2538 31.272 30.3535C31.2073 29.8988 31.1568 29.4386 31.0262 28.9963C30.8841 28.5153 30.6088 28.0985 30.385 27.6529C29.8563 26.5989 29.5754 25.4968 29.5424 24.32C29.5089 23.1184 29.5452 21.9246 29.2484 20.7481C28.9439 19.5408 28.2803 18.4663 27.8482 17.3036C27.4366 16.1967 27.1984 15.048 27.1287 13.8704C27.0461 12.4719 27.1091 11.0614 26.98 9.66537C26.8981 8.77898 26.4995 7.61693 27.3712 6.98418C27.9183 6.58673 28.601 6.34326 29.2455 6.15282C29.9514 5.94392 30.7124 5.78579 31.4527 5.85207C32.1018 5.9103 32.8072 6.29947 32.5961 7.0591C32.4778 7.48543 32.1163 7.80168 32.0031 8.23275C31.8912 8.65872 32.0423 9.12068 32.2914 9.47209C32.7504 10.1195 33.5159 10.4675 34.2569 10.6973C35.0125 10.9317 35.7961 11.1011 36.5836 11.1845C37.2182 11.2519 38.0425 11.3177 38.6049 10.9496C39.1471 10.5943 39.0538 9.89369 38.8909 9.35858C38.667 8.62274 38.1933 7.87945 38.1966 7.0933C38.1985 6.6781 38.4137 6.38244 38.7731 6.18158C38.7261 6.17566 38.6791 6.16963 38.6319 6.16359C39.6491 7.05176 39.6964 8.60132 40.7643 9.43966C41.2493 9.8203 41.9637 10.033 42.5798 9.9318C42.8542 9.88658 43.1191 9.79391 43.3845 9.71473C43.5926 9.65271 43.8942 9.52535 44.1157 9.57885C44.3848 9.64359 44.2279 10.0189 44.1647 10.1923C43.9938 10.6599 43.7233 11.1195 43.2867 11.3879C42.596 11.8126 41.7112 11.6669 40.9432 11.6273C40.4523 11.6018 40.0036 11.6462 39.5271 11.7678C38.9006 11.9279 38.3355 11.9828 37.6977 11.8371C37.1487 11.7117 36.6198 11.5166 36.0644 11.4158C35.4603 11.3058 34.8504 11.227 34.2419 11.1447C33.0612 10.9857 31.8736 10.8162 30.7442 10.4258C30.1744 10.2292 29.6322 9.96742 29.0559 9.78681C28.5437 9.62655 28.0179 9.51281 27.4869 9.43398C26.3288 9.262 25.1536 9.21809 23.9898 9.09062C22.6758 8.94693 21.3668 8.75791 20.0645 8.53232C19.4877 8.43207 18.9378 8.3285 18.4074 8.07249C17.9585 7.85566 17.5434 7.5781 17.126 7.30848C16.2139 6.71917 15.3008 6.31758 14.2286 6.09873C13.089 5.86568 11.9014 5.79798 10.7395 5.82769C10.2194 5.84083 9.6788 5.91374 9.16803 5.78165C8.75831 5.67548 8.04088 5.21494 8.06148 4.72233C8.06687 4.59616 8.1745 4.40832 8.31028 4.42986C8.36512 4.43862 8.44905 4.51579 8.49598 4.55024C8.578 4.61131 8.7261 4.71428 8.74394 4.82566C8.77148 4.99882 8.54591 5.09043 8.41385 5.14546C7.9111 5.35484 7.32885 5.41225 6.79102 5.46385C6.16722 5.52386 5.53875 5.51688 4.91986 5.62399C4.38646 5.71631 3.86456 5.8845 3.39222 6.14832C3.00669 6.36374 2.69695 6.67313 2.38457 6.97838C2.02645 7.32837 1.65864 7.66569 1.15948 7.79518C1.20726 7.82181 1.25503 7.84879 1.30268 7.87542C1.11878 7.25995 1.31645 6.56601 1.57675 6.00002C1.82016 5.4706 2.20306 4.8324 2.77297 4.59983C3.30111 4.3843 3.77716 4.3237 3.87677 3.68692C3.90311 3.51779 3.9073 3.33149 4.02979 3.19538C4.19897 3.00742 4.48764 2.95452 4.72866 2.97689C5.11778 3.01299 5.47949 3.20461 5.83377 3.35197C7.25797 3.94412 8.80093 3.81984 10.2895 3.57993C11.8123 3.33433 13.4109 2.93215 14.9547 3.2471C16.3883 3.53957 17.3989 4.76849 18.8254 5.10652C20.3951 5.47841 22.0364 5.27152 23.6267 5.185C25.4258 5.08735 27.196 4.6873 28.9948 4.62303C29.774 4.59521 30.5432 4.67937 31.2962 4.87845C31.9964 5.06356 32.6738 5.32147 33.3616 5.54505C35.1589 6.1295 37.0127 5.54848 38.7718 5.10084C40.6126 4.63226 42.4168 4.26724 44.3178 4.60208C44.4644 4.62788 44.5274 4.40584 44.3799 4.38015L44.3812 4.38027Z" fill="#2B2A29" stroke="#2B2A29" stroke-width="0.233779" stroke-miterlimit="10"/>
</svg>
