<svg width="34" height="25" viewBox="0 0 34 25" fill="none" xmlns="http://www.w3.org/2000/svg">
<path d="M33.6841 21.8946V21.177C33.6841 19.5584 32.6726 18.1726 31.2489 17.6159C31.6959 17.0905 31.9667 16.4092 31.9667 15.6651C31.9667 14.0083 30.627 12.6604 28.9802 12.6604C28.9707 12.6604 28.9613 12.6611 28.9518 12.6611C28.5137 12.0303 27.9039 11.5531 27.2068 11.2812C27.6514 10.7564 27.9207 10.0769 27.9207 9.335C27.9207 7.67816 26.581 6.33026 24.9341 6.33026C24.9247 6.33026 24.9154 6.33092 24.9059 6.33099C24.4678 5.7 23.858 5.22276 23.1608 4.95086C23.6054 4.42605 23.8747 3.74658 23.8747 3.00461C23.8747 1.34789 22.5349 0 20.8882 0C19.2414 0 17.9016 1.34789 17.9016 3.00467C17.9016 3.74664 18.1709 4.42618 18.6155 4.95092C17.9182 5.22283 17.3084 5.70007 16.8703 6.33105C16.8609 6.33099 16.8515 6.33033 16.8421 6.33033C16.8326 6.33033 16.8233 6.33099 16.8139 6.33105C16.3757 5.70007 15.7659 5.22283 15.0687 4.95092C15.5133 4.42612 15.7826 3.74664 15.7826 3.00467C15.7825 1.34789 14.4428 0 12.7961 0C11.1492 0 9.80941 1.34789 9.80941 3.00467C9.80941 3.74664 10.0787 4.42618 10.5233 4.95092C9.82605 5.22283 9.21625 5.70007 8.77816 6.33105C8.76875 6.33099 8.75941 6.33033 8.75 6.33033C7.10322 6.33033 5.76342 7.67822 5.76342 9.33507C5.76342 10.077 6.0327 10.7564 6.4773 11.2813C5.78013 11.5532 5.17033 12.0303 4.73224 12.6612C4.72276 12.6611 4.71342 12.6605 4.70395 12.6605C3.05717 12.6605 1.71737 14.0084 1.71737 15.6652C1.71737 16.4093 1.98822 17.0905 2.4352 17.6159C1.01151 18.1727 0 19.5585 0 21.177V24.3421C0 24.7054 0.294539 25 0.657895 25H33.0262C33.3896 25 33.6841 24.7054 33.6841 24.3421V21.8972C33.6841 21.8968 33.6842 21.8964 33.6842 21.8959C33.6842 21.8955 33.6841 21.8951 33.6841 21.8946ZM28.9803 13.9762C29.9015 13.9762 30.651 14.7339 30.651 15.6651C30.651 16.5964 29.9015 17.354 28.9803 17.354C28.0589 17.354 27.3094 16.5964 27.3094 15.6651C27.3094 14.7339 28.0589 13.9762 28.9803 13.9762ZM24.9342 7.64612C25.8555 7.64612 26.605 8.40375 26.605 9.33507C26.605 10.2663 25.8555 11.0239 24.9342 11.0239C24.013 11.0239 23.2634 10.2663 23.2634 9.33507C23.2634 8.40382 24.013 7.64612 24.9342 7.64612ZM20.8882 1.31579C21.8094 1.31579 22.5589 2.07342 22.5589 3.00467C22.5589 3.93592 21.8094 4.69362 20.8882 4.69362C19.9669 4.69362 19.2174 3.93592 19.2174 3.00467C19.2174 2.07342 19.9669 1.31579 20.8882 1.31579ZM19.9826 6.00941H21.7936C22.4374 6.00941 23.044 6.26382 23.4993 6.70072C22.5753 7.21217 21.9476 8.20119 21.9476 9.33507C21.9476 10.077 22.2169 10.7564 22.6615 11.2813C21.9643 11.5532 21.3546 12.0303 20.9165 12.6612C20.907 12.6611 20.8977 12.6605 20.8882 12.6605C20.8786 12.6605 20.8693 12.6611 20.8597 12.6612C20.4216 12.0303 19.8119 11.5532 19.1147 11.2813C19.5593 10.7564 19.8286 10.077 19.8286 9.33507C19.8286 8.20119 19.2009 7.21217 18.2769 6.70072C18.7322 6.26382 19.3388 6.00941 19.9826 6.00941ZM22.5589 15.6651C22.5589 16.5964 21.8094 17.354 20.8882 17.354C19.9668 17.354 19.2173 16.5964 19.2173 15.6651C19.2173 14.7339 19.9668 13.9762 20.8882 13.9762C21.8094 13.9762 22.5589 14.7339 22.5589 15.6651ZM16.8421 7.64612C17.7634 7.64612 18.5128 8.40382 18.5128 9.33507C18.5128 10.2663 17.7633 11.0239 16.8421 11.0239C15.9209 11.0239 15.1713 10.2663 15.1713 9.33507C15.1713 8.40375 15.9209 7.64612 16.8421 7.64612ZM12.7961 1.31579C13.7172 1.31579 14.4667 2.07342 14.4667 3.00467C14.4667 3.93592 13.7172 4.69362 12.7961 4.69362C11.8748 4.69362 11.1252 3.93592 11.1252 3.00467C11.1252 2.07342 11.8748 1.31579 12.7961 1.31579ZM11.8905 6.00941H13.7014C14.3453 6.00941 14.9519 6.26382 15.4072 6.70079C14.4832 7.21217 13.8555 8.20119 13.8555 9.33507C13.8555 10.077 14.1248 10.7564 14.5694 11.2813C13.8722 11.5532 13.2624 12.0303 12.8243 12.6612C12.8149 12.6611 12.8055 12.6605 12.7961 12.6605C12.7865 12.6605 12.7772 12.6611 12.7678 12.6612C12.3297 12.0303 11.7199 11.5532 11.0227 11.2813C11.4673 10.7564 11.7366 10.077 11.7366 9.33507C11.7366 8.20119 11.1089 7.21217 10.1849 6.70072C10.6401 6.26382 11.2468 6.00941 11.8905 6.00941ZM14.4667 15.6651C14.4667 16.5964 13.7172 17.354 12.7961 17.354C11.8748 17.354 11.1252 16.5964 11.1252 15.6651C11.1252 14.7339 11.8747 13.9762 12.7961 13.9762C13.7172 13.9762 14.4667 14.7339 14.4667 15.6651ZM8.75 7.64612C9.67125 7.64612 10.4207 8.40382 10.4207 9.33507C10.4207 10.2663 9.67118 11.0239 8.75 11.0239C7.82875 11.0239 7.07921 10.2663 7.07921 9.33507C7.07921 8.40375 7.82875 7.64612 8.75 7.64612ZM4.70395 13.9763C5.6252 13.9763 6.37467 14.7339 6.37467 15.6652C6.37467 16.5964 5.62513 17.3541 4.70395 17.3541C3.7827 17.3541 3.03316 16.5964 3.03316 15.6652C3.03316 14.7339 3.7827 13.9763 4.70395 13.9763ZM8.09204 23.6842H1.31579V22.5538H3.35757C3.72092 22.5538 4.01546 22.2593 4.01546 21.8959C4.01546 21.5326 3.72092 21.238 3.35757 21.238H1.31579V21.177C1.31579 19.7945 2.44053 18.6698 3.82296 18.6698H5.58487C6.96737 18.6698 8.09204 19.7945 8.09204 21.177V23.6842ZM8.74987 19.0353C8.31783 18.3988 7.69868 17.8999 6.97257 17.6159C7.41954 17.0905 7.69039 16.4093 7.69039 15.6652C7.69039 14.5314 7.06276 13.5424 6.13881 13.0309C6.59414 12.5941 7.20072 12.3397 7.84447 12.3397H9.65539C10.2992 12.3397 10.9058 12.5941 11.361 13.0309C10.437 13.5424 9.80934 14.5314 9.80934 15.6652C9.80934 16.4093 10.0802 17.0906 10.5272 17.6159C9.80105 17.8999 9.18191 18.3988 8.74987 19.0353ZM16.1841 23.6842H9.40789V21.177C9.40789 19.7945 10.5326 18.6699 11.9151 18.6699H13.677C15.0595 18.6699 16.1841 19.7946 16.1841 21.177V23.6842ZM16.8421 19.0353C16.4101 18.3988 15.7909 17.8998 15.0647 17.6159C15.5116 17.0905 15.7825 16.4093 15.7825 15.6652C15.7825 14.5314 15.1549 13.5424 14.231 13.031C14.6862 12.5941 15.2928 12.3397 15.9366 12.3397H17.7475C18.3912 12.3397 18.9978 12.5941 19.4531 13.031C18.5291 13.5424 17.9015 14.5314 17.9015 15.6652C17.9015 16.4093 18.1724 17.0905 18.6193 17.6159C17.8932 17.8999 17.2741 18.3988 16.8421 19.0353ZM24.2762 23.6842H17.5V21.177C17.5 19.7945 18.6247 18.6699 20.0071 18.6699H21.7691C23.1516 18.6699 24.2762 19.7946 24.2762 21.177V23.6842ZM24.9341 19.0352C24.5022 18.3988 23.883 17.8998 23.1568 17.6159C23.6037 17.0905 23.8746 16.4092 23.8746 15.6651C23.8746 14.5313 23.247 13.5424 22.323 13.0309C22.7783 12.594 23.3849 12.3397 24.0286 12.3397H25.8395C26.4833 12.3397 27.0899 12.594 27.5451 13.0309C26.6214 13.5424 25.9936 14.5313 25.9936 15.6651C25.9936 16.4092 26.2645 17.0905 26.7114 17.6159C25.9853 17.8998 25.3662 18.3988 24.9341 19.0352ZM32.3683 21.2381H30.3266C29.9633 21.2381 29.6687 21.5327 29.6687 21.896C29.6687 22.2593 29.9633 22.5539 30.3266 22.5539H32.3683V23.6842H25.5921V21.177C25.5921 19.7945 26.7168 18.6699 28.0993 18.6699H29.8612C31.2436 18.6699 32.3683 19.7946 32.3683 21.177V21.2381Z" fill="white"/>
</svg>
