<svg width="35" height="35" viewBox="0 0 35 35" fill="none" xmlns="http://www.w3.org/2000/svg">
<path d="M15.3125 18.1453L12.4797 15.3125L10.9375 16.8547L15.3125 21.2297L24.0625 12.4797L22.5203 10.9375L15.3125 18.1453Z" fill="white"/>
<path d="M17.5 32.8125L10.7452 29.2109C8.81942 28.1864 7.20896 26.6569 6.08667 24.7864C4.96439 22.9159 4.37267 20.7751 4.37501 18.5938V4.375C4.37561 3.79503 4.60628 3.23898 5.01638 2.82888C5.42649 2.41877 5.98253 2.18811 6.56251 2.1875H28.4375C29.0175 2.18811 29.5735 2.41877 29.9836 2.82888C30.3937 3.23898 30.6244 3.79503 30.625 4.375V18.5938C30.6273 20.7751 30.0356 22.9159 28.9133 24.7864C27.7911 26.6569 26.1806 28.1864 24.2548 29.2109L17.5 32.8125ZM6.56251 4.375V18.5938C6.56061 20.3785 7.0448 22.1302 7.9631 23.6606C8.8814 25.191 10.1991 26.4425 11.7749 27.2806L17.5 30.3333L23.2251 27.2806C24.8009 26.4425 26.1186 25.191 27.0369 23.6606C27.9552 22.1302 28.4394 20.3785 28.4375 18.5938V4.375H6.56251Z" fill="white"/>
</svg>
