<svg width="45" height="45" viewBox="0 0 45 45" fill="none" xmlns="http://www.w3.org/2000/svg">
<path d="M36.975 11.9875H8.01875C7.57629 12.0013 7.14088 12.1021 6.7374 12.2842C6.33392 12.4663 5.97029 12.7262 5.6673 13.0489C5.36431 13.3716 5.12789 13.7509 4.97157 14.165C4.81524 14.5792 4.74208 15.0201 4.75625 15.4625V29.4875C4.80313 30.5123 5.22069 31.4852 5.93125 32.225C6.52114 32.7107 7.25509 32.9876 8.01875 33.0125H36.975C37.8741 32.9735 38.7216 32.5815 39.3336 31.9216C39.9455 31.2617 40.2726 30.3871 40.2438 29.4875V15.4625C40.2707 14.5684 39.9415 13.7001 39.3286 13.0485C38.7157 12.3969 37.8691 12.0153 36.975 11.9875ZM37.8125 25.55C36.7725 25.9852 35.8413 26.6444 35.0851 27.4805C34.3289 28.3166 33.7663 29.3092 33.4375 30.3875H11.5625C11.2011 29.3319 10.6261 28.362 9.87338 27.5384C9.12068 26.7147 8.20639 26.0549 7.1875 25.6V19.375C8.27309 18.9429 9.23803 18.2546 10 17.3688C10.7084 16.5501 11.246 15.5982 11.5813 14.5688H33.4563C33.7515 15.6649 34.3018 16.6756 35.0621 17.5185C35.8225 18.3613 36.7713 19.0125 37.8313 19.4188V25.55H37.8125Z" fill="white"/>
<path d="M22.5 16.25C19.3188 16.25 16.7438 19.0313 16.7438 22.4625C16.7438 25.8938 19.3188 28.6687 22.5 28.6687C25.6813 28.6687 28.2562 25.8875 28.2562 22.4625C28.2562 19.0375 25.625 16.25 22.5 16.25ZM22.9688 26.0125V27.175H21.9313V26.1188C21.2959 26.1041 20.6738 25.9346 20.1187 25.625L20.4312 24.2875C20.9649 24.6055 21.5726 24.7779 22.1937 24.7875C22.8187 24.7875 23.2125 24.5375 23.2125 24.0813C23.2125 23.625 22.875 23.3688 22.0875 23.0813C20.95 22.6688 20.175 22.0938 20.175 20.9812C20.1768 20.4804 20.3602 19.9973 20.6913 19.6214C21.0223 19.2456 21.4784 19.0026 21.975 18.9375V17.8437H23.025V18.8625C23.5567 18.8741 24.0794 19.0021 24.5563 19.2375L24.25 20.5375C23.7773 20.2827 23.2495 20.1475 22.7125 20.1437C22.025 20.1437 21.8 20.4625 21.8 20.7687C21.8 21.075 22.1688 21.3937 23.05 21.7562C24.3 22.2375 24.8187 22.8688 24.8187 23.9C24.8214 24.4238 24.6321 24.9305 24.2866 25.3243C23.9412 25.7181 23.4635 25.9718 22.9437 26.0375L22.9688 26.0125Z" fill="white"/>
</svg>
