<svg width="30" height="30" viewBox="0 0 30 30" fill="none" xmlns="http://www.w3.org/2000/svg">
<path d="M23.7723 0H6.22785C2.7938 0 0 2.79372 0 6.2277V23.7715C0 27.2059 2.7938 30 6.22785 30H23.7723C27.2063 30 30 27.2059 30 23.7715V6.2277C30 2.79372 27.2063 0 23.7723 0ZM28.8608 23.7715C28.8608 26.5777 26.578 28.8608 23.7723 28.8608H6.22785C3.42197 28.8608 1.13924 26.5777 1.13924 23.7715V6.2277C1.13924 3.42197 3.42197 1.13924 6.22785 1.13924H23.7723C26.578 1.13924 28.8608 3.42197 28.8608 6.2277V23.7715Z" fill="white"/>
<path d="M15.6162 4.98291H9.91255C8.99432 4.98291 8.24994 5.72729 8.24994 6.64552V23.3544C8.24994 24.2726 8.99432 25.017 9.91255 25.017C10.8308 25.017 11.5752 24.2726 11.5752 23.3544V17.8089H15.6162C18.9984 17.8089 21.75 15.0574 21.75 11.6752V11.1167C21.75 7.73456 18.9984 4.98291 15.6162 4.98291ZM18.4249 11.6753C18.4249 13.2239 17.165 14.4839 15.6163 14.4839H11.5752V8.3082H15.6163C17.165 8.3082 18.4249 9.56813 18.4249 11.1167V11.6753Z" fill="white"/>
</svg>
