<svg width="38" height="30" viewBox="0 0 38 30" fill="none" xmlns="http://www.w3.org/2000/svg">
<path fill-rule="evenodd" clip-rule="evenodd" d="M27.1191 23.3405V26.1263C27.1191 27.1538 26.71 28.1391 25.9842 28.865C25.2588 29.5908 24.2734 30 23.2455 30H3.87368C2.8457 30 1.86033 29.5908 1.13499 28.865C0.409157 28.1391 0 27.1538 0 26.1263V15.9564V15.9545V14.5014C0 13.4739 0.409157 12.4885 1.13499 11.7627C1.86033 11.0368 2.8457 10.6277 3.87368 10.6277H15.4794C15.3539 11.2558 15.2836 11.9038 15.2736 12.5665H3.87368C3.35993 12.5665 2.86991 12.7703 2.50627 13.134C2.14214 13.4981 1.93878 13.9876 1.93878 14.5014V14.9861H15.5113C15.6559 15.658 15.8637 16.3064 16.1282 16.9248H1.93878V26.1263C1.93878 26.64 2.14214 27.13 2.50627 27.4937C2.86991 27.8573 3.35993 28.0612 3.87368 28.0612H23.2455C23.7597 28.0612 24.2492 27.8573 24.6129 27.4937C24.977 27.13 25.1804 26.64 25.1804 26.1263V23.377C25.4334 23.395 25.6889 23.4041 25.9465 23.4041C26.3428 23.4041 26.7341 23.3825 27.1191 23.3405Z" fill="white"/>
<path fill-rule="evenodd" clip-rule="evenodd" d="M5.81249 21.7679C4.21944 21.7679 2.9082 23.0792 2.9082 24.6722C2.9082 26.2653 4.21944 27.5765 5.81249 27.5765C7.40554 27.5765 8.71678 26.2653 8.71678 24.6722C8.71678 23.0792 7.40554 21.7679 5.81249 21.7679ZM5.81249 23.7028C6.35868 23.7028 6.78188 24.126 6.78188 24.6722C6.78188 25.2184 6.35868 25.6416 5.81249 25.6416C5.26582 25.6416 4.84311 25.2184 4.84311 24.6722C4.84311 24.126 5.26582 23.7028 5.81249 23.7028Z" fill="white"/>
<path d="M28.0381 6.42721C28.355 6.17638 28.4084 5.71619 28.1576 5.39937C27.9068 5.08253 27.4466 5.02902 27.1298 5.27986L28.0381 6.42721ZM25.1581 6.84081C24.8413 7.09164 24.7878 7.55183 25.0386 7.86865C25.2894 8.18549 25.7496 8.239 26.0664 7.98816L25.1581 6.84081ZM25.1581 7.98816C25.4749 8.239 25.9351 8.18549 26.1859 7.86865C26.4367 7.55183 26.3833 7.09164 26.0664 6.84081L25.1581 7.98816ZM24.0947 5.27986C23.778 5.02902 23.3178 5.08253 23.0669 5.39937C22.8161 5.71619 22.8696 6.17638 23.1864 6.42721L24.0947 5.27986ZM24.8806 7.41448C24.8806 7.81859 25.2082 8.14618 25.6123 8.14618C26.0164 8.14618 26.344 7.81859 26.344 7.41448H24.8806ZM26.344 3.90235C26.344 3.49825 26.0164 3.17065 25.6123 3.17065C25.2082 3.17065 24.8806 3.49825 24.8806 3.90235H26.344ZM26.344 7.41448C26.344 7.01038 26.0164 6.68279 25.6123 6.68279C25.2082 6.68279 24.8806 7.01038 24.8806 7.41448H26.344ZM24.8806 15.9997C24.8806 16.4038 25.2082 16.7314 25.6123 16.7314C26.0164 16.7314 26.344 16.4038 26.344 15.9997H24.8806ZM23.1864 16.987C22.8696 17.2378 22.8161 17.698 23.0669 18.0148C23.3178 18.3317 23.778 18.3851 24.0947 18.1343L23.1864 16.987ZM26.0664 16.5734C26.3833 16.3225 26.4367 15.8623 26.1859 15.5456C25.9351 15.2287 25.4749 15.1752 25.1581 15.4261L26.0664 16.5734ZM26.0664 15.4261C25.7496 15.1752 25.2894 15.2287 25.0386 15.5456C24.7878 15.8623 24.8413 16.3225 25.1581 16.5734L26.0664 15.4261ZM27.1298 18.1343C27.4466 18.3851 27.9068 18.3317 28.1576 18.0148C28.4084 17.698 28.355 17.2378 28.0381 16.987L27.1298 18.1343ZM26.344 15.9997C26.344 15.5956 26.0164 15.268 25.6123 15.268C25.2082 15.268 24.8806 15.5956 24.8806 15.9997H26.344ZM24.8806 19.5118C24.8806 19.9159 25.2082 20.2435 25.6123 20.2435C26.0164 20.2435 26.344 19.9159 26.344 19.5118H24.8806ZM19.769 12.2617C19.3921 12.116 18.9684 12.3034 18.8226 12.6803C18.6769 13.0571 18.8642 13.4808 19.2411 13.6266L19.769 12.2617ZM21.5923 14.5358C21.9692 14.6816 22.3929 14.4942 22.5387 14.1173C22.6844 13.7404 22.4971 13.3167 22.1202 13.171L21.5923 14.5358ZM22.5794 13.9648C22.6409 13.5654 22.367 13.1918 21.9676 13.1302C21.5682 13.0687 21.1946 13.3426 21.1331 13.742L22.5794 13.9648ZM20.7526 16.2122C20.6911 16.6116 20.965 16.9853 21.3644 17.0468C21.7638 17.1083 22.1374 16.8344 22.1989 16.435L20.7526 16.2122ZM22.2193 14.4887C22.5701 14.2882 22.692 13.8412 22.4915 13.4904C22.291 13.1396 21.8441 13.0176 21.4932 13.2181L22.2193 14.4887ZM18.4201 14.9742C18.0692 15.1746 17.9473 15.6217 18.1478 15.9725C18.3483 16.3233 18.7953 16.4453 19.1461 16.2448L18.4201 14.9742ZM21.4932 13.2181C21.1424 13.4186 21.0205 13.8656 21.221 14.2164C21.4214 14.5672 21.8684 14.6892 22.2193 14.4887L21.4932 13.2181ZM29.7313 10.1961C30.0821 9.99561 30.2041 9.54862 30.0036 9.19777C29.8031 8.84691 29.3561 8.72501 29.0053 8.9255L29.7313 10.1961ZM31.4556 11.1525C31.8325 11.2982 32.2562 11.1108 32.4019 10.7339C32.5477 10.3571 32.3603 9.93337 31.9834 9.78762L31.4556 11.1525ZM29.6322 8.87835C29.2553 8.73259 28.8316 8.91997 28.6859 9.29687C28.5401 9.67377 28.7275 10.0975 29.1044 10.2432L29.6322 8.87835ZM28.6451 9.4494C28.5836 9.84878 28.8575 10.2224 29.2569 10.284C29.6563 10.3455 30.03 10.0716 30.0915 9.67218L28.6451 9.4494ZM30.472 7.20197C30.5335 6.80258 30.2596 6.42894 29.8602 6.36742C29.4608 6.3059 29.0871 6.57981 29.0256 6.9792L30.472 7.20197ZM29.0053 8.9255C28.6545 9.12599 28.5325 9.57296 28.733 9.92381C28.9335 10.2746 29.3805 10.3966 29.7313 10.1961L29.0053 8.9255ZM32.8044 8.44001C33.1553 8.23952 33.2772 7.79256 33.0767 7.4417C32.8762 7.09084 32.4292 6.96894 32.0784 7.16944L32.8044 8.44001ZM19.2411 9.78762C18.8642 9.93337 18.6769 10.3571 18.8226 10.7339C18.9684 11.1108 19.3921 11.2982 19.769 11.1525L19.2411 9.78762ZM22.1202 10.2432C22.4971 10.0975 22.6844 9.67377 22.5387 9.29687C22.3929 8.91997 21.9692 8.73259 21.5923 8.87835L22.1202 10.2432ZM21.1331 9.67218C21.1946 10.0716 21.5682 10.3455 21.9676 10.284C22.367 10.2224 22.6409 9.84878 22.5794 9.4494L21.1331 9.67218ZM22.1989 6.9792C22.1374 6.57981 21.7638 6.3059 21.3644 6.36742C20.965 6.42894 20.6911 6.80258 20.7526 7.20197L22.1989 6.9792ZM21.4932 10.1961C21.8441 10.3966 22.291 10.2746 22.4915 9.92381C22.692 9.57296 22.5701 9.12599 22.2193 8.9255L21.4932 10.1961ZM19.1461 7.16944C18.7953 6.96894 18.3483 7.09084 18.1478 7.4417C17.9473 7.79256 18.0692 8.23952 18.4201 8.44001L19.1461 7.16944ZM22.2193 8.9255C21.8684 8.72501 21.4214 8.84691 21.221 9.19777C21.0205 9.54862 21.1424 9.99561 21.4932 10.1961L22.2193 8.9255ZM29.0053 14.4887C29.3561 14.6892 29.8031 14.5672 30.0036 14.2164C30.2041 13.8656 30.0821 13.4186 29.7313 13.2181L29.0053 14.4887ZM31.9834 13.6266C32.3603 13.4808 32.5477 13.0571 32.4019 12.6803C32.2562 12.3034 31.8325 12.116 31.4556 12.2617L31.9834 13.6266ZM29.1044 13.171C28.7275 13.3167 28.5401 13.7404 28.6859 14.1173C28.8316 14.4942 29.2553 14.6816 29.6322 14.5358L29.1044 13.171ZM30.0915 13.742C30.03 13.3426 29.6563 13.0687 29.2569 13.1302C28.8575 13.1918 28.5836 13.5654 28.6451 13.9648L30.0915 13.742ZM29.0256 16.435C29.0871 16.8344 29.4608 17.1083 29.8602 17.0468C30.2596 16.9853 30.5335 16.6116 30.472 16.2122L29.0256 16.435ZM29.7313 13.2181C29.3805 13.0176 28.9335 13.1396 28.733 13.4904C28.5325 13.8412 28.6545 14.2882 29.0053 14.4887L29.7313 13.2181ZM32.0784 16.2448C32.4292 16.4453 32.8762 16.3233 33.0767 15.9725C33.2772 15.6217 33.1553 15.1746 32.8044 14.9742L32.0784 16.2448ZM27.1298 5.27986L25.1581 6.84081L26.0664 7.98816L28.0381 6.42721L27.1298 5.27986ZM26.0664 6.84081L24.0947 5.27986L23.1864 6.42721L25.1581 7.98816L26.0664 6.84081ZM26.344 7.41448V3.90235H24.8806V7.41448H26.344ZM24.8806 7.41448V15.9997H26.344V7.41448H24.8806ZM24.0947 18.1343L26.0664 16.5734L25.1581 15.4261L23.1864 16.987L24.0947 18.1343ZM25.1581 16.5734L27.1298 18.1343L28.0381 16.987L26.0664 15.4261L25.1581 16.5734ZM24.8806 15.9997V19.5118H26.344V15.9997H24.8806ZM19.2411 13.6266L21.5923 14.5358L22.1202 13.171L19.769 12.2617L19.2411 13.6266ZM21.1331 13.742L20.7526 16.2122L22.1989 16.435L22.5794 13.9648L21.1331 13.742ZM21.4932 13.2181L18.4201 14.9742L19.1461 16.2448L22.2193 14.4887L21.4932 13.2181ZM22.2193 14.4887L29.7313 10.1961L29.0053 8.9255L21.4932 13.2181L22.2193 14.4887ZM31.9834 9.78762L29.6322 8.87835L29.1044 10.2432L31.4556 11.1525L31.9834 9.78762ZM30.0915 9.67218L30.472 7.20197L29.0256 6.9792L28.6451 9.4494L30.0915 9.67218ZM29.7313 10.1961L32.8044 8.44001L32.0784 7.16944L29.0053 8.9255L29.7313 10.1961ZM19.769 11.1525L22.1202 10.2432L21.5923 8.87835L19.2411 9.78762L19.769 11.1525ZM22.5794 9.4494L22.1989 6.9792L20.7526 7.20197L21.1331 9.67218L22.5794 9.4494ZM22.2193 8.9255L19.1461 7.16944L18.4201 8.44001L21.4932 10.1961L22.2193 8.9255ZM21.4932 10.1961L29.0053 14.4887L29.7313 13.2181L22.2193 8.9255L21.4932 10.1961ZM31.4556 12.2617L29.1044 13.171L29.6322 14.5358L31.9834 13.6266L31.4556 12.2617ZM28.6451 13.9648L29.0256 16.435L30.472 16.2122L30.0915 13.742L28.6451 13.9648ZM29.0053 14.4887L32.0784 16.2448L32.8044 14.9742L29.7313 13.2181L29.0053 14.4887Z" fill="white"/>
</svg>
