<svg width="30" height="30" viewBox="0 0 30 30" fill="none" xmlns="http://www.w3.org/2000/svg">
<g clip-path="url(#clip0_119_73)">
<path d="M29.375 21.875H28.75V21.25C28.75 20.2145 27.9105 19.375 26.875 19.375C26.6558 19.375 26.4455 19.413 26.25 19.4821V19.375C26.25 18.3395 25.4105 17.5 24.375 17.5C23.3394 17.5 22.5 18.3395 22.5 19.375V21.875H13.75V19.375C13.75 18.3395 12.9106 17.5 11.875 17.5C10.8395 17.5 10 18.3395 10 19.375V19.4821C9.8045 19.413 9.59427 19.375 9.37501 19.375C8.33948 19.375 7.50001 20.2145 7.50001 21.25V21.875H6.87499C6.52981 21.875 6.24997 22.1549 6.24997 22.5V25.0001C6.24997 25.3452 6.52981 25.6251 6.87499 25.6251H7.50001V26.25C7.50001 27.2855 8.33948 28.125 9.37501 28.125C9.59421 28.125 9.8045 28.087 10 28.0179V28.125C10 29.1605 10.8395 30 11.875 30C12.9106 30 13.75 29.1605 13.75 28.125V25.625H22.5V28.125C22.5 29.1605 23.3395 30 24.375 30C25.4105 30 26.25 29.1605 26.25 28.125V28.0179C26.4455 28.087 26.6558 28.125 26.875 28.125C27.9106 28.125 28.75 27.2855 28.75 26.25V25.625H29.375C29.7202 25.625 30.0001 25.3451 30.0001 24.9999V22.5C30 22.1548 29.7202 21.875 29.375 21.875ZM20 23.125V24.375H16.25V23.125H20ZM9.37501 26.875C9.02983 26.875 8.74999 26.5952 8.74999 26.25V21.25C8.74999 20.9048 9.02983 20.625 9.37501 20.625C9.72018 20.625 10 20.9048 10 21.25V26.25C10 26.5952 9.72018 26.875 9.37501 26.875ZM12.5 28.125C12.5 28.4702 12.2201 28.75 11.875 28.75C11.5298 28.75 11.2499 28.4702 11.2499 28.125V26.25V21.25V19.375C11.2499 19.0298 11.5298 18.75 11.875 18.75C12.2201 18.75 12.5 19.0298 12.5 19.375V28.125ZM13.75 23.125H15V24.375H13.75V23.125ZM21.25 24.375V23.125H22.5V24.375H21.25ZM25 28.125C25 28.4702 24.7202 28.75 24.375 28.75C24.0298 28.75 23.75 28.4702 23.75 28.125V19.375C23.75 19.0298 24.0298 18.75 24.375 18.75C24.7202 18.75 25 19.0298 25 19.375V21.25V26.25V28.125ZM27.5 26.25C27.5 26.5952 27.2201 26.875 26.875 26.875C26.5298 26.875 26.25 26.5952 26.25 26.25V21.25C26.25 20.9048 26.5299 20.625 26.875 20.625C27.2202 20.625 27.5 20.9048 27.5 21.25V26.25H27.5Z" fill="white"/>
<path d="M21.25 20V12.5C21.25 11.4645 20.4105 10.625 19.375 10.625H13.125C12.0895 10.625 11.25 11.4645 11.25 12.5V16.25H12.5V12.5C12.5 12.1548 12.7798 11.875 13.125 11.875H19.375C19.7202 11.875 20 12.1548 20 12.5V20H21.25Z" fill="white"/>
<path d="M4.37502 20C5.41055 20 6.25002 19.1605 6.25002 18.125V12.5C6.25002 11.4645 5.41055 10.625 4.37502 10.625H1.24998V8.74999H23.75V16.25H25V8.12503C25 8.02513 24.9759 7.93103 24.9342 7.84724L24.9374 7.84565L21.1874 0.345654C21.0811 0.132724 20.863 -0.00127985 20.625 9.21768e-06H4.37502C4.13924 0.00106391 3.92414 0.134716 3.81879 0.345654L0.0900586 7.80306C0.0332812 7.89722 0 8.00708 0 8.12503V26.875C0.00205078 28.6 1.39998 29.998 3.12498 30H5.625V28.75H3.12498C2.08945 28.75 1.24998 27.9106 1.24998 26.875V20H4.37502ZM4.37502 11.875C4.7202 11.875 5.00004 12.1549 5.00004 12.5V18.1251C5.00004 18.4702 4.7202 18.7501 4.37502 18.7501H1.24998V11.875H4.37502ZM11.875 7.50001H7.67572L9.23666 1.24999H11.875V7.50001ZM13.125 1.24999H15.7617L17.3242 7.50001H13.125V1.24999ZM23.3607 7.50001H18.612L17.0495 1.24999H20.2388L23.3607 7.50001ZM4.76127 1.24999H7.94895L6.38795 7.50001H1.63928L4.76127 1.24999Z" fill="white"/>
</g>
<defs>
<clipPath id="clip0_119_73">
<rect width="30" height="30" fill="white"/>
</clipPath>
</defs>
</svg>
