<svg width="31" height="38" viewBox="0 0 31 38" fill="none" xmlns="http://www.w3.org/2000/svg">
<path d="M22.6791 18.7625L18.8096 8.85084L15.5468 14.6458L12.2839 8.85084L8.4144 18.7657H7.29612V20.2556H13.123V18.7657H12.2605L13.0996 16.3036L15.5468 20.3727L17.9939 16.3036L18.833 18.7657H17.9705V20.2556H23.8208V18.7657L22.6791 18.7625ZM30.9999 15.7352C31.001 13.6685 30.6007 11.6219 29.8222 9.71235C29.0436 7.8028 27.9019 6.06776 26.4624 4.6064C25.0229 3.14505 23.3138 1.98605 21.4328 1.19565C19.5518 0.405253 17.5357 -0.00103857 15.5 1.9937e-06C6.94676 1.9937e-06 0 7.05058 0 15.7352C0 20.0893 1.74839 24.016 4.54487 26.8549C4.71999 27.0343 4.94369 27.1567 5.18752 27.2066C5.43135 27.2565 5.68431 27.2317 5.91421 27.1353C6.14411 27.0389 6.34057 26.8752 6.47861 26.6652C6.61665 26.4551 6.69003 26.2081 6.68941 25.9556C6.68994 25.6105 6.55593 25.2792 6.31665 25.0341C3.89415 22.5648 2.53655 19.2201 2.54226 15.7352C2.54226 8.47083 8.34422 2.5555 15.5 2.5555C22.6557 2.5555 28.4826 8.47083 28.4826 15.7352C28.4865 17.4667 28.1527 19.1819 27.5007 20.7819C26.8486 22.382 25.8911 23.8352 24.6833 25.0578L13.7282 36.1776L15.5 38L26.4785 26.8549C27.9169 25.3955 29.0569 23.6617 29.8329 21.7534C30.6089 19.845 31.0055 17.7997 30.9999 15.7352Z" fill="#DA1B1B"/>
</svg>
