<svg width="10" height="11" viewBox="0 0 10 11" fill="none" xmlns="http://www.w3.org/2000/svg">
<path d="M6.86081 7.24419L7.09439 6.99939L6.55202 6.42443L6.31849 6.66923L6.86081 7.24419ZM7.87874 6.89685L8.85841 7.45824L9.22577 6.74593L8.2461 6.18454L7.87874 6.89685ZM9.04702 8.57401L8.31856 9.33751L8.86088 9.91247L9.58934 9.14897L9.04702 8.57401ZM7.87469 9.58334C7.13121 9.65636 5.20765 9.59128 3.12502 7.40841L2.58268 7.98337C4.85537 10.3654 7.01844 10.4818 7.94607 10.3906L7.87469 9.58334ZM3.12502 7.40841C1.13984 5.32769 0.810997 3.57764 0.770062 2.81841L0.00212741 2.86442C0.0536417 3.81998 0.460828 5.75941 2.58268 7.98337L3.12502 7.40841ZM3.83026 4.06777L3.97733 3.91362L3.43501 3.33867L3.28794 3.49282L3.83026 4.06777ZM4.0944 1.94868L3.4478 1.03821L2.83206 1.52411L3.47865 2.43459L4.0944 1.94868ZM1.27308 0.84004L0.468212 1.68364L1.01055 2.25859L1.81542 1.41499L1.27308 0.84004ZM3.5591 3.7803C3.28794 3.49282 3.28757 3.49321 3.2872 3.49359C3.28708 3.49372 3.28671 3.49412 3.28646 3.49438C3.28595 3.49492 3.28544 3.49546 3.28492 3.49602C3.28388 3.49714 3.2828 3.4983 3.2817 3.49951C3.27948 3.50194 3.27713 3.50456 3.27466 3.50739C3.26971 3.51305 3.26428 3.51953 3.25846 3.52684C3.24684 3.54146 3.23366 3.55947 3.21982 3.58101C3.19206 3.62419 3.16182 3.68129 3.13615 3.75309C3.08378 3.8996 3.05571 4.09274 3.09091 4.3319C3.15974 4.79961 3.46531 5.41742 4.24808 6.23783L4.7904 5.66287C4.05789 4.8951 3.88339 4.42786 3.85098 4.2076C3.83554 4.10277 3.85154 4.05118 3.85595 4.03896C3.85862 4.03141 3.8599 4.03063 3.85662 4.0358C3.85498 4.03832 3.85226 4.04227 3.848 4.0476C3.8459 4.05026 3.84339 4.05328 3.84047 4.05664C3.83898 4.05832 3.83744 4.06009 3.8357 4.06194C3.83488 4.06287 3.83401 4.06382 3.83308 4.06479C3.83262 4.06528 3.83216 4.06577 3.8317 4.06626C3.83149 4.06651 3.83113 4.06689 3.83098 4.06702C3.83062 4.06739 3.83026 4.06777 3.5591 3.7803ZM4.24808 6.23783C5.0311 7.05852 5.61993 7.37792 6.06436 7.44981C6.29147 7.48651 6.47459 7.45722 6.6135 7.40268C6.6816 7.37592 6.73585 7.34441 6.77687 7.31544C6.79738 7.30095 6.81451 7.28717 6.82841 7.275C6.83538 7.26895 6.84153 7.26327 6.84692 7.25809C6.84964 7.25549 6.85215 7.25306 6.85445 7.25073C6.85563 7.24954 6.85671 7.24841 6.85779 7.24733C6.8583 7.24679 6.85881 7.24625 6.85933 7.24571C6.85958 7.24544 6.85999 7.24506 6.8601 7.24495C6.86045 7.24457 6.86081 7.24419 6.58965 6.95669C6.31849 6.66923 6.31885 6.66885 6.31921 6.66847C6.31931 6.66837 6.31967 6.66799 6.31993 6.66772C6.32039 6.66723 6.32085 6.66675 6.32131 6.66626C6.32229 6.66534 6.32316 6.66442 6.32403 6.6635C6.32583 6.66172 6.32752 6.6601 6.32911 6.65853C6.33229 6.6555 6.33516 6.65285 6.33772 6.65069C6.34275 6.64626 6.34649 6.64345 6.3488 6.64177C6.35357 6.63842 6.35259 6.63993 6.345 6.64291C6.33244 6.64783 6.28214 6.66474 6.18102 6.64837C5.96908 6.61415 5.5227 6.43037 4.7904 5.66287L4.24808 6.23783ZM3.4478 1.03821C2.92512 0.302228 1.8973 0.185771 1.27308 0.84004L1.81542 1.41499C2.08805 1.12923 2.57227 1.15831 2.83206 1.52411L3.4478 1.03821ZM0.770062 2.81841C0.759975 2.63133 0.841375 2.43591 1.01055 2.25859L0.468212 1.68364C0.192683 1.97243 -0.0239271 2.38123 0.00212741 2.86442L0.770062 2.81841ZM8.31856 9.33751C8.17764 9.48523 8.02658 9.56842 7.87469 9.58334L7.94607 10.3906C8.32276 10.3536 8.6314 10.153 8.86088 9.91247L8.31856 9.33751ZM3.97733 3.91362C4.48216 3.38448 4.5197 2.54753 4.0944 1.94868L3.47865 2.43459C3.68555 2.72592 3.65479 3.10832 3.43501 3.33867L3.97733 3.91362ZM8.85841 7.45824C9.27777 7.69856 9.3431 8.26363 9.04702 8.57401L9.58934 9.14897C10.2766 8.4286 10.0647 7.22663 9.22577 6.74593L8.85841 7.45824ZM7.09439 6.99939C7.2913 6.79301 7.60825 6.74188 7.87874 6.89685L8.2461 6.18454C7.69045 5.86611 7.00085 5.95406 6.55202 6.42443L7.09439 6.99939Z" fill="#3C3C3C"/>
</svg>
