<svg width="12" height="16" viewBox="0 0 12 16" fill="none" xmlns="http://www.w3.org/2000/svg">
<path d="M8.77901 7.6528L7.28113 3.82724L6.0181 6.06391L4.75507 3.82724L3.25719 7.65402H2.82431V8.22908H5.07989V7.65402H4.74602L5.07083 6.70374L6.0181 8.2743L6.96537 6.70374L7.29019 7.65402H6.95632V8.22908H9.22095V7.65402L8.77901 7.6528ZM12 6.48436C12.0004 5.6867 11.8455 4.89678 11.5441 4.15976C11.2427 3.42274 10.8007 2.75307 10.2435 2.18904C9.68628 1.62501 9.02469 1.17768 8.29655 0.872612C7.56842 0.567546 6.78803 0.410732 5.99999 0.411134C2.68907 0.411134 0 3.13241 0 6.48436C0 8.16491 0.676795 9.68047 1.7593 10.7762C1.82709 10.8454 1.91368 10.8927 2.00807 10.9119C2.10246 10.9312 2.20038 10.9216 2.28937 10.8844C2.37836 10.8472 2.45441 10.784 2.50785 10.703C2.56128 10.6219 2.58969 10.5265 2.58945 10.4291C2.58965 10.2959 2.53778 10.168 2.44516 10.0734C1.50741 9.12037 0.981891 7.82944 0.9841 6.48436C0.9841 3.68058 3.23002 1.39747 5.99999 1.39747C8.76996 1.39747 11.0255 3.68058 11.0255 6.48436C11.027 7.15267 10.8978 7.81468 10.6454 8.43223C10.393 9.04978 10.0224 9.61067 9.55482 10.0826L5.31414 14.3744L5.99999 15.0778L10.2497 10.7762C10.8066 10.2129 11.2478 9.54372 11.5482 8.80716C11.8486 8.0706 12.0021 7.2812 12 6.48436Z" fill="#DA1B1B"/>
</svg>
