<svg width="12" height="12" viewBox="0 0 12 12" fill="none" xmlns="http://www.w3.org/2000/svg">
<path d="M2.5 8.0778C1.57432 8.43074 1 8.92252 1 9.46652C1 10.5405 3.23858 11.4111 6 11.4111C8.76144 11.4111 11 10.5405 11 9.46652C11 8.92252 10.4257 8.43074 9.5 8.0778M6 4.74447H6.00556M9.33333 4.74447C9.33333 7.00208 6.83333 8.0778 6 9.74447C5.16667 8.0778 2.66667 7.00208 2.66667 4.74447C2.66667 2.90352 4.15905 1.41113 6 1.41113C7.84094 1.41113 9.33333 2.90352 9.33333 4.74447ZM6.55556 4.74447C6.55556 5.05129 6.30683 5.30002 6 5.30002C5.69317 5.30002 5.44444 5.05129 5.44444 4.74447C5.44444 4.43764 5.69317 4.18891 6 4.18891C6.30683 4.18891 6.55556 4.43764 6.55556 4.74447Z" stroke="#3C3C3C" stroke-linecap="round" stroke-linejoin="round"/>
</svg>
